<svg width="1023" height="231" viewBox="0 0 1023 231" fill="none" xmlns="http://www.w3.org/2000/svg">
<path d="M246.056 194.948L211.703 231L159.714 177.924C156.436 174.578 154.59 170.009 154.59 165.24V66.571C154.59 61.8492 156.4 57.3208 159.621 53.982L211.703 0L245.627 35.1618L192.379 90.3526H292.004V140.202H192.379L246.056 194.948Z" fill="#5A46F5"/>
<path d="M45.9477 194.948L80.301 231L132.29 177.924C135.568 174.578 137.414 170.009 137.414 165.24V66.571C137.414 61.8492 135.604 57.3208 132.383 53.982L80.301 0L46.3771 35.1618L99.6248 90.3526H0V140.202H99.6248L45.9477 194.948Z" fill="#5A46F5"/>
<path d="M483.325 169.775V201.344H360.557C360.557 144.762 360.557 87.9381 360.557 31.3565H483.325V62.4399H391.249V101.537H480.045V131.406H391.249V169.775H483.325Z" fill="black"/>
<path d="M618.751 201.344H590.167V138.691C590.167 120.479 580.561 106.637 562.287 106.637C544.715 106.637 532.766 121.936 532.766 140.149V201.344H504.417V81.3814H529.955L531.829 97.6516C543.544 85.7525 555.258 79.6815 569.784 79.6815C596.962 79.6815 618.751 100.809 618.751 138.449V201.344Z" fill="black"/>
<path d="M643.314 81.6242H669.789L671.898 95.4661C680.801 80.6529 692.75 78.4673 704.464 78.4673C716.413 78.4673 727.893 83.3241 734.219 89.8808L721.333 115.622C715.476 110.522 710.087 107.851 700.716 107.851C685.721 107.851 671.898 116.107 671.898 138.206V201.344H643.314V81.6242Z" fill="black"/>
<path d="M773.485 81.1386V201.344H744.901V81.1386H773.485ZM742.324 47.8696C742.324 70.9393 776.062 70.9393 776.062 47.8696C776.062 24.7998 742.324 24.7998 742.324 47.8696Z" fill="black"/>
<path d="M879.248 166.618L898.46 186.045C885.106 199.644 871.048 204.987 853.945 204.987C820.442 204.987 792.561 184.102 792.561 141.606C792.561 99.1087 820.442 78.2245 853.945 78.2245C870.345 78.2245 882.997 83.0813 895.649 95.9518L877.608 115.622C870.814 109.308 862.379 106.151 854.414 106.151C835.202 106.151 821.144 120.721 821.144 141.606C821.144 164.432 836.139 176.574 853.945 176.574C863.082 176.574 872.22 173.903 879.248 166.618Z" fill="black"/>
<path d="M911.009 31.3565H939.593V97.8945C949.901 84.0526 962.553 79.9244 975.673 79.9244C1008.47 79.9244 1023 102.994 1023 138.206V201.344H994.417V138.449C994.417 116.593 983.405 107.365 968.176 107.365C951.307 107.365 939.593 122.178 939.593 140.149V201.344H911.009V31.3565Z" fill="black"/>
</svg>
