<svg width="73" height="67" viewBox="0 0 73 67" fill="none" xmlns="http://www.w3.org/2000/svg">
<rect x="0.974609" y="0.703857" width="71.4613" height="66.1678" rx="4.41119" fill="url(#paint0_linear_4169_1664)"/>
<path d="M52.3786 45.346L46.803 50.9913L38.3651 42.6803C37.8331 42.1563 37.5336 41.4408 37.5336 40.6941V25.2438C37.5336 24.5044 37.8273 23.7953 38.3501 23.2725L46.803 14.8196L52.3089 20.3255L43.6667 28.9677H59.836V36.7735H43.6667L52.3786 45.346Z" fill="#594FFD"/>
<path d="M19.9007 45.346L25.4763 50.9913L33.9143 42.6803C34.4462 42.1563 34.7458 41.4408 34.7458 40.6941V25.2438C34.7458 24.5044 34.4521 23.7953 33.9293 23.2725L25.4763 14.8196L19.9704 20.3255L28.6126 28.9677H12.4434V36.7735H28.6126L19.9007 45.346Z" fill="#594FFD"/>
<defs>
<linearGradient id="paint0_linear_4169_1664" x1="36.7052" y1="0.703857" x2="36.7052" y2="66.8717" gradientUnits="userSpaceOnUse">
<stop stop-color="white"/>
<stop offset="1" stop-color="#FBFBFB"/>
</linearGradient>
</defs>
</svg>
